<?xml version="1.0" standalone="no"?>
<!DOCTYPE svg PUBLIC "-//W3C//DTD SVG 20010904//EN"
 "http://www.w3.org/TR/2001/REC-SVG-20010904/DTD/svg10.dtd">
<svg version="1.0" xmlns="http://www.w3.org/2000/svg"
 width="500.000000pt" height="500.000000pt" viewBox="0 0 500.000000 500.000000"
 preserveAspectRatio="xMidYMid meet">

<g transform="translate(0.000000,500.000000) scale(0.100000,-0.100000)"
fill="#000000" stroke="none">
<path d="M2088 3009 c-111 -17 -198 -122 -198 -240 0 -29 -5 -39 -21 -44 -19
-6 -79 -79 -79 -96 0 -5 16 3 36 16 121 82 266 48 328 -77 l27 -53 -58 -27
c-70 -33 -70 -33 -78 -9 -17 55 -87 90 -114 57 -20 -24 6 -59 114 -154 119
-105 149 -154 141 -225 -3 -27 -15 -64 -26 -83 l-22 -34 113 0 c102 0 116 2
155 25 28 16 49 39 63 68 19 40 21 60 21 263 0 209 -1 221 -23 259 -12 22 -39
51 -60 64 -31 20 -37 30 -37 59 0 80 -54 173 -121 208 -43 22 -107 31 -161 23z
m109 -70 c58 -22 112 -99 113 -161 l0 -28 -176 0 -177 0 5 49 c6 58 36 104 86
131 41 21 106 26 149 9z"/>
<path d="M1512 2923 c-17 -6 -42 -57 -42 -83 0 -12 13 -35 29 -51 60 -60 151
-24 151 60 0 31 -6 44 -26 60 -25 20 -80 27 -112 14z"/>
<path d="M860 2465 l0 -395 90 0 90 0 0 164 c0 94 4 167 10 171 5 3 33 -70 63
-162 l53 -168 87 -3 c66 -2 87 0 86 10 0 7 -33 105 -73 217 l-73 205 73 178
73 179 -86 -3 -87 -3 -60 -149 -61 -148 -3 151 -3 151 -89 0 -90 0 0 -395z"/>
<path d="M2630 2465 l0 -395 80 0 80 0 0 225 0 225 25 6 c55 14 55 14 55 -231
l0 -225 80 0 80 0 0 235 c0 249 -5 280 -48 319 -29 25 -120 18 -162 -13 l-30
-22 0 136 0 135 -80 0 -80 0 0 -395z"/>
<path d="M1480 2380 l0 -320 85 0 85 0 -2 318 -3 317 -82 3 -83 3 0 -321z"/>
<path d="M3275 2617 c-26 -14 -48 -37 -62 -67 -21 -40 -23 -59 -23 -190 0
-168 8 -205 52 -247 44 -41 97 -57 169 -50 95 8 151 53 169 133 13 53 12 252
0 312 -20 90 -83 132 -197 132 -52 0 -78 -6 -108 -23z m145 -96 c5 -11 10 -84
10 -166 0 -82 -5 -155 -10 -166 -13 -23 -55 -25 -64 -3 -12 31 -7 329 6 342
18 18 46 14 58 -7z"/>
<path d="M3952 2620 c-39 -24 -42 -24 -42 -5 0 12 -16 15 -80 15 l-80 0 2
-372 3 -373 78 -3 77 -3 0 115 0 115 46 -24 c80 -43 141 -29 177 39 19 36 22
61 25 206 4 187 -4 238 -48 282 -23 23 -37 28 -77 28 -30 0 -60 -7 -81 -20z
m28 -80 c12 -7 16 -41 18 -173 3 -150 2 -165 -16 -187 -17 -22 -23 -23 -46
-12 l-26 12 0 174 c0 156 2 176 18 185 21 13 33 13 52 1z"/>
<path d="M1780 2287 c0 -59 2 -107 5 -107 2 0 21 8 41 18 36 16 37 16 48 -3
27 -48 65 -76 98 -73 27 2 34 8 36 30 3 21 -7 36 -49 75 -29 26 -81 75 -116
107 l-63 59 0 -106z"/>
</g>
</svg>
