<?xml version="1.0" standalone="no"?>
<!DOCTYPE svg PUBLIC "-//W3C//DTD SVG 20010904//EN"
 "http://www.w3.org/TR/2001/REC-SVG-20010904/DTD/svg10.dtd">
<svg version="1.0" xmlns="http://www.w3.org/2000/svg"
 width="2024.000000pt" height="500.000000pt" viewBox="0 0 2024.000000 500.000000"
 preserveAspectRatio="xMidYMid meet">

<g transform="translate(0.000000,500.000000) scale(0.100000,-0.100000)"
fill="#000000" stroke="none">
<path d="M1485 4994 c-22 -2 -105 -8 -185 -14 -80 -6 -160 -14 -178 -18 l-34
-7 99 -67 c54 -36 111 -80 126 -96 l28 -29 -128 -6 c-152 -8 -287 -34 -402
-76 -72 -26 -171 -75 -171 -85 0 -2 33 -19 74 -40 65 -32 136 -92 136 -115 0
-4 -31 -11 -70 -15 -174 -16 -373 -68 -505 -131 -78 -37 -162 -104 -132 -105
26 0 110 -82 140 -137 61 -113 91 -278 102 -553 9 -238 47 -447 121 -672 20
-60 34 -111 31 -114 -3 -3 -33 0 -68 6 -204 37 -361 -76 -416 -297 -24 -97
-24 -330 0 -443 64 -297 222 -484 517 -613 l55 -24 35 -94 c73 -200 229 -476
359 -639 69 -86 221 -240 296 -300 181 -144 394 -246 602 -287 118 -23 328
-23 446 0 282 56 550 214 786 463 193 204 336 433 461 741 26 64 53 120 61
124 8 4 50 24 93 43 175 80 307 207 386 371 27 55 56 127 64 160 40 157 44
363 11 503 -31 130 -100 222 -204 270 -49 23 -68 27 -150 26 l-94 -1 7 108 c3
59 18 199 33 311 19 150 27 250 27 383 1 207 -8 250 -80 400 -94 196 -234 315
-428 367 -38 10 -78 18 -88 18 -11 0 -27 18 -42 49 -36 70 -136 191 -209 252
-265 223 -614 344 -1097 379 -125 9 -320 11 -415 4z m1561 -1274 c63 -31 169
-136 229 -229 63 -97 164 -311 210 -441 41 -118 59 -242 71 -482 l7 -147 62
34 c77 43 157 71 227 80 144 18 202 -81 202 -340 -1 -155 -17 -234 -75 -354
-76 -157 -224 -274 -401 -317 l-66 -16 -37 -105 c-109 -316 -267 -581 -479
-801 -129 -133 -241 -217 -391 -293 -172 -86 -277 -111 -465 -111 -125 -1
-159 3 -243 25 -314 83 -616 317 -828 639 -99 152 -223 412 -283 594 l-17 51
-65 16 c-256 64 -422 245 -469 512 -18 107 -19 215 -1 316 15 85 32 123 71
159 24 22 35 25 99 24 87 -1 192 -31 260 -74 26 -17 49 -30 51 -28 1 2 7 90
13 196 16 259 44 441 82 537 122 307 296 495 459 495 29 0 155 -12 280 -26
196 -22 253 -25 431 -21 224 6 300 16 571 78 292 66 403 73 495 29z"/>
<path d="M5214 4306 c-17 -8 -43 -27 -58 -42 -59 -63 -56 21 -56 -1764 0
-1830 -5 -1706 70 -1774 34 -31 47 -36 89 -36 64 0 109 30 141 95 l25 50 0
1660 c0 1359 -2 1667 -13 1698 -18 50 -59 97 -99 113 -40 17 -59 17 -99 0z"/>
<path d="M7483 4249 c-386 -34 -721 -178 -953 -409 -160 -158 -269 -361 -246
-455 5 -21 12 -25 46 -25 43 0 54 8 197 142 192 179 448 306 710 354 191 34
446 29 608 -12 210 -54 357 -204 400 -409 19 -89 19 -272 1 -367 -40 -206
-155 -383 -320 -489 -126 -82 -256 -112 -461 -107 -79 1 -145 5 -148 8 -5 5
134 848 154 935 6 28 27 85 45 128 41 93 42 111 9 133 -20 13 -40 16 -89 11
-180 -17 -410 -173 -484 -328 -26 -56 -38 -113 -92 -454 -127 -806 -230 -1423
-249 -1498 -30 -114 -70 -180 -183 -303 -109 -117 -148 -183 -148 -250 0 -67
13 -69 126 -27 93 35 106 37 214 37 99 0 132 -5 235 -33 168 -46 247 -47 338
-3 155 72 346 310 307 382 -14 26 -31 25 -120 -6 -105 -36 -238 -35 -313 3
l-28 14 26 31 c60 71 71 111 134 478 34 194 63 356 66 360 2 4 47 10 99 13
464 31 951 298 1194 655 144 210 211 405 219 632 7 203 -25 327 -121 469 -151
222 -446 359 -840 391 -143 11 -198 11 -333 -1z"/>
<path d="M9645 3124 c-188 -47 -424 -271 -558 -531 -89 -173 -104 -323 -31
-323 33 0 63 34 120 136 85 150 184 264 230 264 7 0 20 -7 28 -16 40 -39 5
-309 -155 -1214 -61 -345 -80 -426 -120 -532 -35 -90 -39 -123 -16 -145 19
-19 103 -20 168 -3 94 26 231 112 306 193 66 72 88 126 123 307 43 226 121
542 165 674 76 227 181 411 305 536 86 85 160 123 250 128 60 4 67 2 92 -23
35 -35 44 -93 28 -185 -8 -49 -9 -75 -2 -82 32 -32 166 48 240 144 52 69 107
178 127 253 20 77 19 208 -1 268 -17 49 -84 120 -132 138 -108 41 -227 30
-353 -33 -141 -70 -301 -243 -454 -491 -35 -56 -71 -111 -80 -122 -15 -19 -16
-19 -11 10 17 100 37 371 33 431 -14 186 -121 264 -302 218z"/>
<path d="M12280 3129 c-146 -17 -330 -83 -455 -161 -215 -135 -432 -359 -582
-601 -123 -200 -236 -487 -283 -722 -30 -149 -39 -426 -17 -540 59 -309 218
-419 470 -325 175 65 416 269 577 485 40 55 75 102 77 104 10 14 9 -15 -4 -99
-8 -56 -13 -141 -11 -205 3 -93 8 -119 29 -165 50 -107 125 -153 244 -152 129
1 249 59 370 178 161 159 287 413 310 624 6 56 4 69 -12 89 -35 44 -58 23
-123 -114 -70 -149 -136 -254 -180 -285 -17 -12 -51 -25 -75 -28 -39 -4 -45
-2 -61 24 -15 22 -18 44 -17 98 2 39 54 356 118 704 137 753 149 814 182 915
17 52 23 81 16 88 -15 15 -139 56 -223 73 -99 20 -257 27 -350 15z m-19 -399
c100 -39 96 -30 69 -182 -44 -253 -107 -440 -225 -672 -184 -362 -428 -635
-571 -639 -74 -2 -90 55 -81 283 17 418 173 841 402 1088 131 142 256 179 406
122z"/>
<path d="M13960 3126 c-74 -17 -117 -37 -192 -87 -149 -101 -335 -331 -409
-507 -39 -93 -53 -228 -26 -251 41 -34 79 2 172 165 71 123 167 224 214 224
23 0 41 -33 41 -78 0 -77 -140 -947 -206 -1282 -35 -178 -52 -247 -98 -404
-42 -143 -35 -160 68 -158 118 2 264 78 368 190 88 96 101 129 157 407 29 140
71 312 97 391 128 400 436 865 605 915 112 34 106 -92 -46 -876 -102 -530
-120 -690 -91 -825 34 -159 122 -219 292 -199 208 25 436 230 570 514 77 162
106 326 66 375 -30 37 -59 19 -94 -58 -81 -183 -130 -269 -176 -315 -79 -78
-142 -74 -158 9 -9 46 26 250 136 805 91 456 110 583 110 711 -1 261 -116 378
-328 334 -140 -29 -288 -124 -453 -289 -85 -85 -245 -276 -314 -374 -29 -41
-53 -58 -42 -29 14 36 39 350 35 436 -6 104 -23 158 -66 203 -55 58 -135 76
-232 53z"/>
<path d="M17160 3129 c-530 -65 -1027 -557 -1256 -1244 -141 -425 -131 -846
25 -1044 88 -111 246 -123 426 -33 184 92 402 292 556 511 24 34 44 59 46 57
2 -2 -4 -52 -13 -112 -22 -145 -16 -290 15 -360 45 -103 128 -157 243 -156
218 1 457 200 593 494 61 132 106 322 91 382 -6 26 -33 40 -59 30 -9 -3 -50
-74 -91 -157 -41 -84 -91 -173 -110 -199 -60 -79 -152 -111 -192 -67 -35 39
-25 144 65 624 156 836 191 1010 218 1093 18 57 24 85 16 93 -15 15 -139 56
-223 73 -99 20 -257 27 -350 15z m-19 -399 c100 -39 96 -27 64 -202 -46 -260
-122 -475 -248 -708 -183 -337 -409 -579 -545 -583 -72 -2 -88 57 -79 283 17
424 170 841 399 1085 136 146 258 183 409 125z"/>
<path d="M18625 3126 c-152 -39 -290 -176 -390 -387 -81 -173 -116 -371 -71
-405 51 -37 92 -3 155 124 76 156 144 221 215 208 138 -26 192 -340 235 -1376
19 -452 24 -496 62 -526 22 -18 65 -22 121 -12 393 72 1083 1047 1229 1739 16
77 22 141 23 244 1 178 -20 256 -90 334 -57 64 -104 80 -170 57 -134 -46 -304
-236 -304 -342 0 -29 12 -56 54 -118 74 -112 90 -165 89 -301 0 -62 -8 -145
-17 -190 -54 -254 -201 -565 -345 -727 -69 -78 -167 -110 -185 -61 -4 9 -11
91 -17 182 -42 707 -79 984 -165 1241 -39 116 -69 173 -121 231 -70 77 -200
113 -308 85z"/>
</g>
</svg>
