<svg width="61" height="45" viewBox="0 0 61 45" fill="none" xmlns="http://www.w3.org/2000/svg">
<path fill-rule="evenodd" clip-rule="evenodd" d="M0.501172 6.44853C0.881603 4.8533 1.8168 3.42897 3.1536 2.40881C4.4904 1.38865 6.14957 0.833142 7.85938 0.833252H53.1406C54.8504 0.833142 56.5096 1.38865 57.8464 2.40881C59.1832 3.42897 60.1184 4.8533 60.4988 6.44853L30.5 23.9949L0.501172 6.44853ZM0.3125 10.5724V36.2257L22.2098 23.3774L0.3125 10.5724ZM25.8247 25.4971L1.03323 40.0391C1.64576 41.2751 2.61251 42.3192 3.82097 43.0499C5.02943 43.7807 6.4299 44.1679 7.85938 44.1666H53.1406C54.5699 44.1669 55.9698 43.7788 57.1776 43.0475C58.3853 42.3161 59.3513 41.2716 59.963 40.0355L35.1715 25.4935L30.5 28.2271L25.8247 25.4935V25.4971ZM38.7902 23.381L60.6875 36.2257V10.5724L38.7902 23.3774V23.381Z" fill="#25282B"/>
</svg>
